<?xml version="1.0" encoding="utf-8"?>
<!-- Generator: Adobe Illustrator 21.1.0, SVG Export Plug-In . SVG Version: 6.00 Build 0)  -->
<svg version="1.1" id="Layer_1" xmlns="http://www.w3.org/2000/svg" xmlns:xlink="http://www.w3.org/1999/xlink" x="0px" y="0px"
	 viewBox="0 0 750 750" style="enable-background:new 0 0 750 750;" xml:space="preserve">
<g id="Layer_3">
</g>
<g id="Layer_1_1_">
</g>
<g>
	<path d="M304.6,116.9c-27.3,0-41,11.4-41,34.2c0,16.5,7.2,36.3,21.6,59.6l92.9,147.2l190.1-218.8C515.7,95.9,448.4,70,375,70
		c-46.4,0-90.3,10.4-129.7,28.9h59.3V116.9z"/>
	<path d="M581.6,150.7L181.7,610.9C234.3,654.1,301.6,680,375,680c168.4,0,305-136.6,305-305C680,286.3,642.1,206.4,581.6,150.7z"/>
	<path d="M233.6,187c-17.2-27-32-45.1-44.2-54.1C116.8,188.7,70,276.4,70,375c0,88.7,37.9,168.6,98.4,224.3l188.9-217.4L233.6,187z"
		/>
	<path d="M134.9,98.9v18c22.9,1.4,40.5,6.4,53,15c0.5,0.3,1,0.7,1.5,1.1c17.3-13.3,36-24.7,55.9-34.1H134.9z"/>
	<path d="M37.5,750h23.4l120.8-139.1c-4.6-3.7-9-7.6-13.4-11.6L37.5,750z"/>
	<path d="M712.5,0h-23.4L568.3,139.1c4.6,3.7,9,7.6,13.4,11.6L712.5,0z"/>
</g>
</svg>
